<svg xmlns="http://www.w3.org/2000/svg" width="582.834" height="640.76" viewBox="0 0 582.834 640.76" xmlns:xlink="http://www.w3.org/1999/xlink" role="img" artist="Katerina Limpitsouni" source="https://undraw.co/"><g transform="translate(-730.163 -282.736)"><path d="M966.953,643.379C874.023,685.635,754.34,682.64,754.34,682.64H624.821V657.91c52.779-14.733,125.755-23.84,206.421-23.84a945.777,945.777,0,0,1,135.712,9.309Z" transform="translate(190.339 127.527)" opacity="0.1"/><path d="M1186.656,708.006c0,44.725-130.49,80.95-291.417,80.95s-291.417-36.225-291.417-80.95c0-22.3,32.461-42.5,85-57.11v24.73H818.337s119.683,2.995,212.613-39.261C1123.515,649.884,1186.656,676.881,1186.656,708.006Z" transform="translate(126.342 134.54)" opacity="0.1"/><rect width="123.994" height="124.215" transform="translate(934.806 338.513)" fill="#090814"/><path d="M694.753,561.941s10.263,35.921-7.7,38.487a70.111,70.111,0,0,0-30.79,12.829l33.356,43.619H751.2l38.487-38.487s-51.316-38.487-41.053-61.58S694.753,561.941,694.753,561.941Z" transform="translate(286.165 -135.584)" fill="#ed9da0"/><path d="M536.239,554.651l59.016,20.525,41.049,2.566-2.566-35.921-84.669-25.042Z" transform="translate(460.072 318.157)" fill="#ed9da0"/><path d="M688.28,685.3s0,35.921,5.132,35.921,74.408-7.7,94.935,0S839.663,700.7,824.268,685.3s-40.506-38.487-56.175-33.356-79.814,17.961-79.814,17.961Z" transform="translate(383.726 179.807)" fill="#2f2e41"/><path d="M654.726,651.4s-30.79,61.58-10.263,66.711,43.619-2.566,46.185-5.132,38.487-12.829,43.619-7.7,5.131-20.527,5.131-20.527Z" transform="translate(228.692 180.356)" fill="#2f2e41"/><path d="M667.627,630.48s-48.751,66.712-12.829,84.672,207.831,17.961,220.66,0,17.961-74.409,0-79.541S667.627,630.48,667.627,630.48Z" transform="translate(241.449 116.604)" fill="#2f2e41"/><path d="M667.627,630.48s-48.751,66.712-12.829,84.672,207.831,17.961,220.66,0,17.961-74.409,0-79.541S667.627,630.48,667.627,630.48Z" transform="translate(241.449 116.604)" opacity="0.2"/><ellipse cx="59.014" cy="59.014" rx="59.014" ry="59.014" transform="translate(942.43 326.284)" fill="#ed9da0"/><path d="M648.025,571.644l51.316-10.263s12.829,41.053,53.882,33.356,51.316-33.356,51.316-33.356,30.79,12.829,33.356,12.829,35.922,12.829,35.922,20.527-38.487,84.672-38.487,84.672l5.131,138.555-189.871-5.132L663.42,676.844Z" transform="translate(261.051 -93.972)" fill="#6c63ff"/><path d="M647.572,580.4s-15.395,135.989-5.132,146.252,51.316,38.487,51.316,38.487v-30.79L673.23,695.862l20.527-89.8Z" transform="translate(233.279 -36.014)" fill="#ed9da0"/><path d="M746.267,579.448s-8.98,139.838-8.98,144.969S714.194,747.51,706.5,747.51s-12.829-12.829-12.829-12.829l17.961-20.527L698.8,608.955Z" transform="translate(400.147 -38.914)" fill="#ed9da0"/><path d="M790.47,649.41s115.462-64.146,118.027,0-59.014,89.8-59.014,89.8-159.081,47.7-165.5,30.266-19.244-45.661-8.98-48.226,23.092-7.7,28.224-2.566S772.509,680.2,772.509,680.2Z" transform="translate(331.569 87.411)" fill="#2f2e41"/><path d="M768.046,626.042S744.954,636.305,737.257,644,696.2,664.53,696.2,664.53" transform="translate(407.874 103.08)" fill="none" stroke="#000" stroke-miterlimit="10" stroke-width="2" opacity="0.2"/><path d="M695.055,569.049l-15.4-5.132s-56.448,59.014-38.487,74.409,28.224,20.527,33.356,25.658,30.79,7.7,30.79,7.7Z" transform="translate(229.416 -86.245)" fill="#6c63ff"/><path d="M725.152,568.354l23.092,5.132s17.961,38.487,23.092,43.619-7.7,2.566-15.395,12.829-15.4,28.224-30.79,28.224S689.23,632.5,689.23,632.5Z" transform="translate(386.624 -72.72)" fill="#6c63ff"/><path d="M750.957,661.426s-97.5-69.277-130.857-17.961S763.786,764.059,789.444,774.322s48.751,20.527,48.751,20.527,23.092-56.448,23.092-66.711-17.961-10.263-23.092-10.263-28.224-5.132-33.356-12.829S750.957,661.426,750.957,661.426Z" transform="translate(163.25 98.489)" fill="#2f2e41"/><path d="M635.98,629.212s25.658,20.527,48.751,25.658,30.79,17.961,30.79,17.961" transform="translate(224.345 112.74)" fill="none" stroke="#000" stroke-miterlimit="10" stroke-width="2" opacity="0.2"/><path d="M644.921,615.809l2.05,108.638a13.6,13.6,0,0,0,13.75,13.343l202.168-2.271A13.6,13.6,0,0,0,876.314,722.7l6.137-106.367a13.6,13.6,0,0,0-13.577-14.383H658.519a13.6,13.6,0,0,0-13.6,13.856Z" transform="translate(251.586 29.67)" fill="#090814"/><g transform="translate(885.188 282.736)"><path d="M662.151,702.584c5.506-12.151,12.906-23.553,16.432-36.419,4.226-15.42,2.58-31.736,2.077-47.717a149.817,149.817,0,0,1,3.577-42.106,72.4,72.4,0,0,1,20.813-36.235c26.889-24,53.277-25.728,86.11-15.735,12.944,3.94,26.732,11.441,29.942,24.585.484,1.985.7,4.029,1.243,6,2.688,9.786,12.7,15.979,16.312,25.463,4.672,12.267-2.532,25.607-3.474,38.7-1.1,15.286,6.415,29.726,13.821,43.143,4.4,7.976,8.981,16.472,8.544,25.572a32.3,32.3,0,0,1-4.421,14.1,53.753,53.753,0,0,1-45.154,25.884,28.326,28.326,0,0,1-16.913-3.993c-8.013-5.517-10.36-16.627-8.691-26.212s6.534-18.253,10.347-27.2c1.17-2.747,2.225-5.54,3.2-8.361a57.416,57.416,0,1,0-37.873,6.424,77.777,77.777,0,0,1-3.766,43.247,163.309,163.309,0,0,1-18.16,31.664,43.707,43.707,0,0,1-11.569,12.947,41.046,41.046,0,0,1-9.856,4.209c-14.493,4.661-6.932,8.411-22.01,6.315s-30.012-11.191-35.15-25.522C653.028,728.768,656.645,714.734,662.151,702.584Z" transform="translate(-655.498 -518.627)" fill="#090814"/><ellipse cx="62.629" cy="35.49" rx="62.629" ry="35.49" transform="translate(46.663 22.315)" fill="#090814"/></g></g></svg>